<?xml version="1.0" encoding="UTF-8" standalone="no"?>
<svg
   xmlns:dc="http://purl.org/dc/elements/1.1/"
   xmlns:cc="http://creativecommons.org/ns#"
   xmlns:rdf="http://www.w3.org/1999/02/22-rdf-syntax-ns#"
   xmlns:svg="http://www.w3.org/2000/svg"
   xmlns="http://www.w3.org/2000/svg"
   xmlns:sodipodi="http://sodipodi.sourceforge.net/DTD/sodipodi-0.dtd"
   xmlns:inkscape="http://www.inkscape.org/namespaces/inkscape"
   viewBox="0 0 837.3 703.7"
   version="1.1"
   id="svg10"
   sodipodi:docname="overlay.svg"
   inkscape:version="1.0.2 (394de47547, 2021-03-26)">
  <metadata
     id="metadata14">
    <rdf:RDF>
      <cc:Work
         rdf:about="">
        <dc:format>image/svg+xml</dc:format>
        <dc:type
           rdf:resource="http://purl.org/dc/dcmitype/StillImage" />
      </cc:Work>
    </rdf:RDF>
  </metadata>
  <sodipodi:namedview
     pagecolor="#ffffff"
     bordercolor="#666666"
     borderopacity="1"
     objecttolerance="10"
     gridtolerance="10"
     guidetolerance="10"
     inkscape:pageopacity="0"
     inkscape:pageshadow="2"
     inkscape:window-width="960"
     inkscape:window-height="1016"
     id="namedview12"
     showgrid="false"
     inkscape:zoom="0.6124769"
     inkscape:cx="573.10104"
     inkscape:cy="583.9966"
     inkscape:window-x="3520"
     inkscape:window-y="27"
     inkscape:window-maximized="0"
     inkscape:current-layer="svg10" />
  <defs
     id="defs4">
    <style
       id="style2">.a{fill:#aadcec}</style>
  </defs>
  <path
     d="M 0,0 C 0,0 147.8,100.8 67.5,300.3 -12.8,499.8 620,377.5 620,377.5 L 595.8,557.9 635.18053,668.36082 837.4,626.6 V 0 Z"
     class="a"
     id="path6"
     sodipodi:nodetypes="cscccccc" />
  <path
     d="m 441.6123,284.03266 c -45.1,-1.6 -88,-16.1 -129,-32 -41,-15.9 -81.5,-33.6 -125.5,-42 -28.3,-5.4 -60.7,-6.2 -83.4,9 -22.000004,14.6 -29.000004,39.7 -32.900004,63.1 -2.8,17.6 -4.5,36.1 3.3,52.6 5.5,11.4 15.2,21 21.9,32 23.300004,38 6.800004,85 -18.5,122.2 -11.8,17.5 -25.5,34.1 -34.7,52.7 -9.2,18.6 -13.3,39.8 -5.3,58.8 7.9,18.7 26.7,32.9 47.2,42.7 41.600004,20.1 90.500004,26 138.300004,29.2 105.7,7.2 212,4 318,1 a 934,934 0 0 0 117.1,-8.4 c 21.4,-3.4 43.5,-8.8 59.1,-21.6 a 49.5,49.5 0 0 0 11.4,-64.7 c -22.2,-34.4 -83.5,-43 -99,-80 -8.6,-20.3 0.2,-43 12.6,-61.9 26.6,-40.5 71.2,-76 73.6,-122.3 1.6,-31.8 -19.9,-63.6 -53,-78.6 -34.8,-15.7 -83,-13.7 -108.6,12.3 -26.5,26.8 -72.9,37.2 -112.6,35.8 z"
     class="a"
     id="path8" />
</svg>
